<?xml version="1.0" encoding="UTF-8"?>
<svg version="1.1" viewBox="0 0 2000 2000" width="2000" height="2000" xmlns="http://www.w3.org/2000/svg">
<path transform="translate(1490,457)" d="m0 0h1l1 10v256l-4 6-9 6-33 17-33 15-36 14-37 12-32 8-30 5-24 2h-60l-43-3-50-6-58-9-61-11-56-12-51-11-43-8-30-4-24-2h-48l-28 3-25 5-25 7-25 10-26 13-19 12-17 12-16 13-14 12-15 15v6l7 8 9 9 11 9 12 10 20 14 21 12 25 12 20 7 22 6 22 4 20 2h43l31-3 35-6 31-7 39-10 70-20 42-11 40-9 49-9 44-6 44-4 18-1h75l39 3 38 5 35 7 34 9 29 10 25 11 16 9 5 5 1 3v522l-5 7-22 12-19 9-27 11-36 12-27 7-29 6-33 5-33 3-21 1h-50l-38-2-44-4-47-6-53-8-115-19-68-10-18-2-18-1h-21l-28 2-32 5-25 6-27 8-27 10-23 10-25 12-25 13-24 14-3 1h-10l-7-4-4-7v-238l4-6 8-5 16-8 21-10 27-11 34-12 36-10 37-8 33-5 30-3 16-1h70l43 3 43 5 53 8 44 8 74 16 43 9 49 8 27 3 14 1h47l29-3 25-5 24-7 20-8 19-9 20-12 18-13 13-11 8-7 12-11 7-8 9-10v-7l-10-7-35-21-18-10-21-11-25-11-28-10-28-7-18-3-10-1h-45l-26 3-37 7-105 22-66 15-79 19-46 10-37 7-42 6-33 3-25 1h-17l-36-2-30-4-29-6-28-8-28-10-29-13-35-18-5-5-2-3v-537l4-6 9-6 22-11 28-12 28-10 29-9 34-8 37-6 29-3 15-1h66l41 3 50 6 57 9 93 16 45 7 42 5 43 3h53l37-3 32-5 31-7 29-9 24-9 25-11 29-15 20-12 27-18z" fill="#FF8745"/>
<path transform="translate(1315,1150)" d="m0 0h8l13 4 10 9 4 6 2 6v15l-4 10-8 9-12 6-3 1h-15l-10-4-8-6-6-9-2-6v-14l4-10 9-10 9-5z" fill="#FF8745"/>
<path transform="translate(662,802)" d="m0 0 11 1 9 4 8 6 6 10 2 8v8l-4 12-9 10-8 5-6 2-9 1-11-2-8-4-6-5-6-10-2-7v-10l4-11 7-9 10-6z" fill="#FF8745"/>
</svg>
