<?xml version="1.0" encoding="UTF-8"?>
<svg version="1.1" viewBox="0 0 2048 814" width="800" height="318" xmlns="http://www.w3.org/2000/svg">
<path transform="translate(1260,21)" d="m0 0h41l35 3 26 4 27 6 36 12 18 8 25 13 15 10 13 10 14 12 11 11 9 11 11 15 10 18 7 15 6 18 4 18 2 15 1 21-2 24-5 24-6 18-11 23-10 16-13 16-12 13-12 11-17 13-19 12-23 12-25 10-21 7-29 7-31 5-21 2-17 1h-37l-27-2-30-4-27-6-25-7-21-8-20-9-20-11-12-8-12-9-13-11-19-19-13-17-12-20-9-20-7-23-4-26v-35l4-25 7-23 9-20 10-17 12-16 12-14 8-8 11-9 10-8 18-12 18-10 21-10 28-10 26-7 32-6 27-3zm7 103-21 2-25 5-21 7-19 9-15 10-12 10v2h-2l-9 11-8 13-5 11-4 13-2 17v9l3 20 5 14 7 13 9 12 13 13 16 11 19 10 19 7 21 5 20 3 12 1h23l27-3 23-5 20-7 16-8 10-6 12-9 15-15 9-14 6-12 5-19 1-8v-16l-3-17-5-15-9-16-9-11-8-8-15-11-14-8-18-8-20-6-14-3-15-2-13-1z" fill="#FA8845"/>
<path transform="translate(2036,1)" d="m0 0h2l1 7v108l-4 4-19 10-27 11-19 6-18 4-25 2-29-1-35-4-41-7-62-13-21-3-13-1h-16l-22 3-17 5-19 9-16 11-15 13-3 3 2 5 12 11 15 10 15 8 15 5 16 3 20 1 21-2 29-6 40-11 26-7 36-7 36-4h50l25 3 24 5 18 6 17 8 4 4v227l-4 4-23 11-24 8-23 5-26 3h-43l-32-3-41-6-48-8-29-4-20-1-21 2-25 6-21 8-21 10-16 9-7-1-2-2-1-41v-61l1-5 12-7 24-10 26-8 25-5 19-2h45l30 3 37 6 57 12 27 4 12 1h19l20-3 17-5 17-8 14-10 10-9 9-9 1-3-10-7-21-12-20-9-16-5-21-3h-11l-18 2-54 11-56 13-36 8-23 4-20 2h-31l-17-2-21-5-20-7-22-11-4-3-1-5v-228l2-4 19-10 25-9 25-6 22-3 26-1 33 2 37 5 59 10 23 3 12 1h40l21-3 21-5 21-8 20-10 17-11z" fill="#FA8845"/>
<path transform="translate(208,29)" d="m0 0h168l12 22 18 34 45 84 17 32 8 14 8 16 12 22 18 34 30 56 17 32 12 22 18 34 5 10h-140l-14-28-20-38-4-8-250-1-2 6-22 44-11 23-2 2h-131l2-5 31-62 10-19 44-88 10-19 37-74 10-19 43-86 10-19 10-20zm82 90-27 54-11 23-33 66-4 10h155l-23-46-10-19-36-70-10-18z" fill="#FA8845"/>
<path transform="translate(474,29)" d="m0 0h511v102h-188v310h-135v-309h-187l-1-1-1-7v-91z" fill="#FA8845"/>
<path transform="translate(1851,581)" d="m0 0h57l31 3 24 5 21 7 16 8 12 8 12 11 8 10 6 10 6 16 4 19v34l-4 19-6 16-7 12-9 11-11 10-18 11-17 7-21 6-22 4-20 2h-66l-27-3-20-4-20-6-21-10-14-10-13-13-9-14-5-11-4-13-2-12v-38l3-16 6-16 9-15 12-13 15-11 16-8 19-7 22-5 23-3zm21 59-21 2-19 5-13 7-10 9-6 10-3 9-1 7v12l3 13 4 8 7 9 11 8 13 6 16 4 19 2h16l24-3 16-5 13-7 11-11 6-12 2-9v-19l-4-13-6-9-7-7-10-6-13-5-20-4-15-1z" fill="#FA8845"/>
<path transform="translate(1241,581)" d="m0 0h57l29 2 25 4 20 6 17 8 10 8 8 8 8 16 2 10v10h-92l-5-10-8-6-13-4-16-2h-32l-16 2-10 4-3 3-1 3v7l3 5 8 4 18 3 80 3 26 3 19 4 16 6 11 6 10 9 6 8 5 12 2 12v17l-3 15-5 12-7 9-8 8-15 9-16 6-21 5-21 3-13 1-49 1-33-1-26-3-23-5-16-6-15-8-12-10-8-11-6-13-2-10-1-14 1-1h92l3 9 5 8 8 6 13 5 14 2h32l16-2 10-3 7-4 3-6v-10l-3-5-4-3-15-4-24-2-58-2-26-3-25-6-16-7-11-8-8-8-6-11-3-9-1-5v-22l3-12 5-10 9-10 9-7 14-7 16-5 19-4 18-2z" fill="#FA8845"/>
<path transform="translate(751,583)" d="m0 0h152l31 3 19 4 18 6 14 8 10 9 7 11 4 12 2 13v19l-4 16-7 13-9 11-12 10-16 9-4 1 20 30 21 31 10 15v2l-88 1-5-5-10-15-13-20-11-17-3-5-57-1v62h-69zm69 58v48h57l23-1 19-3 10-4 5-5 2-4v-14l-3-6-5-4-12-4-13-2-18-1z" fill="#FA8845"/>
<path transform="translate(618,580)" d="m0 0h30l26 3 19 4 21 7 19 9 4 3-2 6-15 27-11 19-23-10-18-6-18-4-10-1h-14l-21 3-16 5-16 8-10 8-8 9-6 12-2 8v13l3 11 5 10 9 10 13 9 15 7 15 4 12 2h27l21-4 20-7 18-8 4-1 14 24 12 22 2 3-1 4-23 11-22 7-26 5-17 2h-30l-34-5-22-6-20-8-16-9-12-9-10-9-10-11-8-13-6-13-4-13-2-14v-15l3-17 4-12 8-16 9-12 7-8h2v-2l14-11 11-7 16-8 15-6 23-6 20-3z" fill="#FA8845"/>
<path transform="translate(1430,585)" d="m0 0h275v60l-94 1-1 160h-85v-160h-92l-3-1z" fill="#FA8845"/>
<path transform="translate(1023,585)" d="m0 0h84v221l-81 1-3-1z" fill="#FA8845"/>
<path transform="translate(53,641)" d="m0 0h97l19 2 19 5 14 7 10 9 6 9 4 10 1 5v23l-3 12-5 10-8 9-11 7-11 5-17 4-17 2h-98zm46 31-1 4v52h49l14-4 9-6 4-6 2-7v-10l-4-10-7-6-12-5-16-2z" fill="#FA8845"/>
<path transform="translate(234,641)" d="m0 0h131v29h-86v15h84l1 1v27l-1 1h-84v16h87l1 1v28l-1 1h-132z" fill="#FA8845"/>
<path transform="translate(1677,150)" d="m0 0h7l6 3 4 5 1 9-3 6-6 5-9 1-7-3-4-5-1-3v-7l4-7z" fill="#FA8845"/>
<path transform="translate(1959,301)" d="m0 0h9l7 4 3 5v9l-4 6-6 4h-10l-6-4-3-5-1-6 3-7 6-5z" fill="#FA8845"/>
</svg>
